<svg xmlns="http://www.w3.org/2000/svg" version="1.1" xmlns:xlink="http://www.w3.org/1999/xlink"
     xmlns:svgjs="http://svgjs.com/svgjs" height="109.88999938964844" width="256.2900085449219">
    <defs id="SvgjsDefs1589"></defs>
    <g id="SvgjsG1590" rel="mainfill" name="main_text" xmlns:name="main_text"
       transform="translate(-2.059999942779541,-130.11000061035156)" fill="#ffffff">
        <path d="M16.51 225.56L30.95 240L25.13 240L12.75 227.62L6.19 227.62L6.19 240L2.06 240L2.06 211.11L6.19 211.11L6.19 223.49L12.75 223.49L25.13 211.11L30.95 211.11L16.51 225.56ZM41.27 215.24Q39.54 215.24 38.34 216.43Q37.14 217.63 37.14 219.37L37.14 227.62L57.78 227.62L57.78 219.37Q57.78 217.63 56.58 216.43Q55.38 215.24 53.65 215.24L41.27 215.24M61.90 240L57.78 240L57.78 231.75L37.14 231.75L37.14 240L33.02 240L33.02 219.37Q33.02 217.71 33.66 216.23Q34.30 214.74 35.41 213.61Q36.52 212.47 38.03 211.79Q39.54 211.11 41.27 211.11L53.65 211.11Q55.30 211.11 56.79 211.75Q58.27 212.39 59.39 213.50Q60.50 214.62 61.18 216.13Q61.86 217.63 61.90 219.37L61.90 240ZM94.92 240L90.79 240L70.16 217.80L70.16 240L66.03 240L66.03 211.11L70.16 211.11L90.79 232.98L90.79 211.11L94.92 211.11L94.92 240ZM99.05 240L99.05 211.11L119.68 211.11Q121.29 211.11 122.80 211.75Q124.30 212.39 125.44 213.50Q126.57 214.62 127.26 216.13Q127.94 217.63 127.94 219.37Q127.94 223.08 125.13 225.56Q127.94 228.03 127.94 231.75Q127.94 233.44 127.30 234.90Q126.66 236.37 125.54 237.48Q124.43 238.60 122.92 239.28Q121.42 239.96 119.68 240L99.05 240M103.17 227.62L103.17 235.87L119.68 235.87Q121.42 235.87 122.61 234.68Q123.81 233.48 123.81 231.75Q123.81 230.01 122.61 228.82Q121.42 227.62 119.68 227.62L103.17 227.62M103.17 223.49L119.68 223.49Q121.42 223.49 122.61 222.30Q123.81 221.10 123.81 219.37Q123.81 217.63 122.61 216.43Q121.42 215.24 119.68 215.24L103.17 215.24L103.17 223.49ZM156.00 219.37Q156.00 217.63 154.80 216.43Q153.61 215.24 151.87 215.24L139.49 215.24Q137.76 215.24 136.56 216.43Q135.37 217.63 135.37 219.37L135.37 231.75Q135.37 233.48 136.56 234.68Q137.76 235.87 139.49 235.87L151.87 235.87Q153.61 235.87 154.80 234.68Q156.00 233.48 156.00 231.75L156.00 219.37M160.13 231.75Q160.13 233.44 159.47 234.94Q158.81 236.45 157.69 237.57Q156.58 238.68 155.07 239.34Q153.57 240 151.87 240L139.49 240Q137.76 240 136.25 239.36Q134.75 238.72 133.63 237.61Q132.52 236.49 131.88 234.99Q131.24 233.48 131.24 231.75L131.24 219.37Q131.24 217.67 131.90 216.17Q132.56 214.66 133.67 213.55Q134.79 212.43 136.29 211.77Q137.80 211.11 139.49 211.11L151.87 211.11Q153.52 211.11 155.01 211.77Q156.50 212.43 157.63 213.55Q158.77 214.66 159.45 216.17Q160.13 217.67 160.13 219.37L160.13 231.75ZM172.10 215.24Q170.36 215.24 169.17 216.43Q167.97 217.63 167.97 219.37L167.97 227.62L188.60 227.62L188.60 219.37Q188.60 217.63 187.41 216.43Q186.21 215.24 184.48 215.24L172.10 215.24M192.73 240L188.60 240L188.60 231.75L167.97 231.75L167.97 240L163.84 240L163.84 219.37Q163.84 217.71 164.48 216.23Q165.12 214.74 166.23 213.61Q167.35 212.47 168.86 211.79Q170.36 211.11 172.10 211.11L184.48 211.11Q186.13 211.11 187.61 211.75Q189.10 212.39 190.21 213.50Q191.33 214.62 192.01 216.13Q192.69 217.63 192.73 219.37L192.73 240ZM221.62 219.37Q221.62 217.63 220.42 216.43Q219.23 215.24 217.49 215.24L200.98 215.24L200.98 227.62L217.49 227.62Q219.23 227.62 220.42 226.42Q221.62 225.23 221.62 223.49L221.62 219.37M222.82 240L214.56 231.75L200.98 231.75L200.98 240L196.86 240L196.86 211.11L217.49 211.11Q219.10 211.11 220.61 211.75Q222.11 212.39 223.25 213.50Q224.38 214.62 225.07 216.13Q225.75 217.63 225.75 219.37L225.75 223.49Q225.75 224.81 225.33 226.03Q224.92 227.25 224.16 228.28Q223.39 229.31 222.34 230.12Q221.29 230.92 220.01 231.33L225.75 237.07L225.75 240L222.82 240ZM254.22 219.37Q254.22 217.63 253.03 216.43Q251.83 215.24 250.10 215.24L233.59 215.24L233.59 235.87L250.10 235.87Q251.83 235.87 253.03 234.68Q254.22 233.48 254.22 231.75L254.22 219.37M258.35 231.75Q258.35 233.40 257.71 234.88Q257.07 236.37 255.96 237.50Q254.84 238.64 253.33 239.32Q251.83 240 250.10 240L229.46 240L229.46 211.11L250.10 211.11Q251.75 211.11 253.23 211.75Q254.72 212.39 255.83 213.50Q256.95 214.62 257.63 216.13Q258.31 217.63 258.35 219.37L258.35 231.75Z"
              fill="#ffffff" style="fill: rgb(255, 255, 255);"></path>
    </g>
    <g id="SvgjsG1591" rel="mainfill" name="symbol" xmlns:name="symbol_mainfill"
       transform="translate(88.54500427246094,-6.6) scale(3.3)" fill="#ffffff">
        <path fill-rule="evenodd"
              d="M11,4 L11,20 C11,21.1045695 10.1045695,22 9,22 L4,22 C2.8954305,22 2,21.1045695 2,20 L2,4 C2,2.8954305 2.8954305,2 4,2 L9,2 C10.1045695,2 11,2.8954305 11,4 Z M9,4 L4,4 L4,20 L9,20 L9,4 Z M22,4 L22,16 C22,17.1045695 21.1045695,18 20,18 L15,18 C13.8954305,18 13,17.1045695 13,16 L13,4 C13,2.8954305 13.8954305,2 15,2 L20,2 C21.1045695,2 22,2.8954305 22,4 Z M20,4 L15,4 L15,16 L20,16 L20,4 Z"
              fill="#ffffff" style="fill: rgb(255, 255, 255);"></path>
    </g>
</svg>